<svg width="115" height="115" viewBox="0 0 115 115" fill="none" xmlns="http://www.w3.org/2000/svg">
<path d="M68.2216 72.6353C71.0189 72.6353 73.7672 71.5556 76.4111 69.4121C76.9819 68.9489 77.0702 68.1109 76.607 67.5402C76.1438 66.9694 75.3058 66.881 74.7351 67.3442C72.1902 69.4068 69.5899 70.2618 67.0077 69.8849C62.051 69.1608 58.633 64.2371 58.5989 64.187C58.1932 63.5939 57.3914 63.43 56.7855 63.8154C53.2429 66.0718 49.9654 66.8108 47.0435 66.0111C42.6671 64.8142 40.4715 60.5773 40.4502 60.5347C40.1169 59.8799 39.3162 59.6179 38.6613 59.9502C38.0064 60.2824 37.7445 61.0842 38.0767 61.739C38.1875 61.9563 40.8399 67.0738 46.3418 68.5783C49.713 69.5005 53.3526 68.8648 57.1742 66.6883C58.6223 68.4208 62.0106 71.8441 66.6233 72.5182C67.1579 72.5959 67.6913 72.6353 68.2216 72.6353Z" fill="#212121"/>
<path d="M81.1101 40.9059L79.7259 42.8226L78.874 45.8041L79.7259 49.105L81.3231 51.1281L85.8698 52.0237L89.4519 50.2018L90.9075 46.8689V44.2441C90.9075 44.2441 90.0556 41.6513 89.9491 41.5448C89.8427 41.4383 88.5649 39.8411 88.5649 39.8411C88.5649 39.8411 85.3704 39.0957 85.264 39.0957C85.1575 39.0957 82.2825 39.8411 82.2825 39.8411L81.1112 40.9059H81.1101Z" fill="white"/>
<path d="M36.2782 32.3917L34.5543 34.0102L33.1509 36.7744L33.3585 40.1776L34.5415 42.468L38.8338 44.2132L42.6969 43.1069L44.7606 40.1116L45.2599 37.5347C45.2599 37.5347 44.9171 34.8269 44.833 34.7023C44.7488 34.5777 43.798 32.7665 43.798 32.7665C43.798 32.7665 40.8037 31.4269 40.6993 31.4067C40.595 31.3865 37.6306 31.5707 37.6306 31.5707L36.2782 32.3927V32.3917Z" fill="white"/>
<path d="M78.3949 44.2601C79.8856 38.5101 84.8902 38.0842 84.8902 38.0842C94.2606 37.8712 97.9874 49.7971 95.5384 54.6953C93.0893 59.5934 87.4458 60.3388 82.8671 58.7416C78.2884 57.1444 76.9041 50.0101 78.3949 44.2601ZM82.8671 49.5842C84.6773 50.2231 87.5523 50.1166 89.043 47.1351C90.5337 44.1536 87.7652 39.7879 83.6124 40.7462C83.6124 40.7462 81.4828 40.9592 80.9504 43.1953C80.418 45.4314 81.0569 48.9453 82.8671 49.5842Z" fill="#212121"/>
<path d="M36.3336 50.2284C31.4993 49.8525 26.6299 46.904 26.3531 41.4341C26.0762 35.9641 34.2785 26.5394 42.7747 30.4963C42.7747 30.4963 47.1873 32.8964 46.2438 38.7603C45.3004 44.6253 41.1679 50.6032 36.3336 50.2273V50.2284ZM44.3314 36.7595C44.7414 34.4979 42.8769 33.448 42.8769 33.448C39.4588 30.9031 35.1698 33.7898 35.338 37.1184C35.5062 40.4481 38.0959 41.6992 40.0104 41.8408C41.9249 41.9825 43.9204 39.0212 44.3314 36.7595Z" fill="#212121"/>
<path d="M59.9203 52.193C58.9769 51.9236 57.2583 51.8735 56.9388 52.8319C56.6194 53.7902 57.4712 55.4939 58.749 55.8133C60.0268 56.1328 61.9435 55.3874 62.3694 54.1096C62.7953 52.8319 60.6657 52.4059 59.9203 52.193Z" fill="#212121"/>
<path d="M86.4342 69.1235C86.4342 69.1235 79.7259 74.0217 80.6842 79.2393C81.6425 84.4569 87.2861 85.3087 90.4805 85.0957C93.675 84.8828 99.7444 80.8365 100.49 75.9383C101.235 71.0402 97.6148 66.568 93.8879 66.568C90.1611 66.568 86.4342 69.1235 86.4342 69.1235Z" fill="#D27E7C"/>
<path d="M29.6274 58.2614C29.6274 58.2614 34.5128 64.9793 32.0019 69.6527C29.4911 74.3262 23.8582 73.4073 20.8821 72.2264C17.907 71.0445 13.3687 65.3339 14.1599 60.4432C14.951 55.5525 19.7672 52.4038 23.3152 53.5464C26.8631 54.6878 29.6274 58.2624 29.6274 58.2624V58.2614Z" fill="#D27E7C"/>
</svg>
