<svg width="564" height="564" viewBox="0 0 564 564" fill="none" xmlns="http://www.w3.org/2000/svg">
<path d="M229.417 356.229C215.699 356.229 202.22 350.933 189.253 340.421C186.454 338.149 186.021 334.039 188.292 331.24C190.564 328.441 194.674 328.008 197.473 330.279C209.954 340.395 222.707 344.588 235.371 342.74C259.68 339.189 276.444 315.041 276.611 314.796C278.6 311.887 282.533 311.083 285.504 312.973C302.878 324.039 318.952 327.663 333.282 323.741C354.746 317.871 365.514 297.092 365.618 296.883C367.253 293.672 371.18 292.387 374.392 294.016C377.603 295.646 378.888 299.578 377.259 302.79C376.715 303.855 363.707 328.953 336.724 336.332C320.19 340.854 302.341 337.737 283.598 327.063C276.496 335.559 259.879 352.349 237.256 355.654C234.634 356.035 232.018 356.229 229.417 356.229Z" fill="#212121"/>
<path d="M166.208 200.617L172.997 210.017L177.174 224.639L172.997 240.828L165.163 250.75L142.864 255.142L125.297 246.207L118.158 229.861V216.989C118.158 216.989 122.336 204.272 122.858 203.75C123.38 203.228 129.647 195.395 129.647 195.395C129.647 195.395 145.314 191.739 145.836 191.739C146.358 191.739 160.458 195.395 160.458 195.395L166.202 200.617H166.208Z" fill="white"/>
<path d="M386.079 158.86L394.534 166.798L401.417 180.355L400.398 197.045L394.596 208.278L373.546 216.837L354.599 211.411L344.479 196.721L342.029 184.083C342.029 184.083 343.711 170.803 344.124 170.192C344.536 169.581 349.2 160.698 349.2 160.698C349.2 160.698 363.884 154.129 364.396 154.029C364.908 153.93 379.447 154.834 379.447 154.834L386.079 158.865V158.86Z" fill="white"/>
<path d="M179.524 217.067C172.213 188.867 147.669 186.778 147.669 186.778C101.713 185.734 83.4354 244.222 95.4466 268.245C107.458 292.267 135.135 295.922 157.591 288.089C180.047 280.256 186.835 245.267 179.524 217.067ZM157.591 243.178C148.713 246.311 134.613 245.789 127.302 231.167C119.991 216.545 133.569 195.134 153.935 199.834C153.935 199.834 164.38 200.878 166.991 211.845C169.602 222.811 166.469 240.045 157.591 243.178Z" fill="#212121"/>
<path d="M385.807 246.337C409.516 244.494 433.397 230.034 434.755 203.207C436.113 176.381 395.886 130.159 354.218 149.564C354.218 149.564 332.577 161.335 337.204 190.094C341.831 218.858 362.098 248.176 385.807 246.332V246.337ZM346.583 180.282C344.573 169.19 353.717 164.04 353.717 164.04C370.48 151.559 391.515 165.717 390.69 182.041C389.865 198.371 377.165 204.507 367.775 205.202C358.385 205.897 348.599 191.374 346.583 180.282Z" fill="#212121"/>
<path d="M270.13 255.972C274.757 254.651 283.185 254.406 284.752 259.106C286.319 263.806 282.141 272.161 275.874 273.728C269.608 275.295 260.208 271.639 258.119 265.372C256.03 259.106 266.474 257.017 270.13 255.972Z" fill="#212121"/>
<path d="M140.097 339.006C140.097 339.006 172.997 363.028 168.297 388.617C163.597 414.206 135.919 418.384 120.252 417.339C104.585 416.295 74.8188 396.45 71.1632 372.428C67.5077 348.406 85.2632 326.472 103.541 326.472C121.819 326.472 140.097 339.006 140.097 339.006Z" fill="#D27E7C"/>
<path d="M418.697 285.734C418.697 285.734 394.737 318.681 407.051 341.601C419.365 364.522 446.991 360.015 461.587 354.223C476.178 348.427 498.435 320.42 494.555 296.434C490.675 272.449 467.055 257.006 449.654 262.61C432.254 268.208 418.697 285.739 418.697 285.739V285.734Z" fill="#D27E7C"/>
</svg>
